<svg width="1464" height="216" viewBox="0 0 1464 216" fill="none" xmlns="http://www.w3.org/2000/svg">
<path d="M109.659 111.826C107.708 123.962 94.2719 135.015 73.4671 135.015C48.3279 135.015 34.6747 118.544 34.6747 87.9871C34.6747 57.43 48.3279 40.7428 73.4671 40.7428C94.7053 40.7428 103.591 52.4455 105.975 64.7984H140.649C137.399 34.8914 112.259 9.96898 73.4671 9.96898C24.7057 9.96898 0 44.2103 0 87.9871C0 131.114 23.1887 165.572 71.9501 165.572C86.9035 165.572 102.507 159.504 109.659 151.919L112.476 163.621H141.733V81.7023H77.8014V111.826H109.659Z" fill="white"/>
<path d="M188.948 165.572C203.035 165.572 213.004 160.587 219.289 153.436H220.156L222.54 163.621H252.447V89.0707C252.447 65.4485 233.809 48.3279 202.818 48.3279C169.444 48.3279 154.057 66.5321 154.057 87.7704H185.264C185.264 80.8355 191.332 75.2008 201.735 75.2008C214.088 75.2008 219.072 81.2689 219.072 89.0707V98.3895C214.521 96.8725 203.252 95.1388 194.8 95.1388C163.593 95.1388 149.289 109.009 149.289 130.03C149.289 150.185 163.376 165.572 188.948 165.572ZM197.4 139.566C187.431 139.566 182.23 134.798 182.23 128.296C182.23 122.228 187.865 117.461 198.701 117.461C205.202 117.461 212.137 118.327 219.072 121.145V122.228C219.072 131.547 211.054 139.566 197.4 139.566Z" fill="white"/>
<path d="M298.827 163.621V107.708C298.827 89.5041 309.013 78.885 324.833 78.885H335.669V48.3279H327.867C313.347 48.3279 303.812 56.7799 298.827 66.7488H297.96L295.36 50.2784H267.62V163.621H298.827Z" fill="white"/>
<path d="M378.584 165.572C392.671 165.572 402.64 160.587 408.925 153.436H409.792L412.175 163.621H442.082V89.0707C442.082 65.4485 423.445 48.3279 392.454 48.3279C359.08 48.3279 343.693 66.5321 343.693 87.7704H374.9C374.9 80.8355 380.968 75.2008 391.371 75.2008C403.723 75.2008 408.708 81.2689 408.708 89.0707V98.3895C404.157 96.8725 392.888 95.1388 384.436 95.1388C353.228 95.1388 338.925 109.009 338.925 130.03C338.925 150.185 353.012 165.572 378.584 165.572ZM387.036 139.566C377.067 139.566 371.866 134.798 371.866 128.296C371.866 122.228 377.501 117.461 388.337 117.461C394.838 117.461 401.773 118.327 408.708 121.145V122.228C408.708 131.547 400.689 139.566 387.036 139.566Z" fill="white"/>
<path d="M475.243 38.7924C488.03 38.7924 495.398 31.424 495.398 19.2878C495.398 7.36838 488.03 0 475.243 0C462.024 0 455.089 7.36838 455.089 19.2878C455.089 31.424 462.024 38.7924 475.243 38.7924ZM450.754 215.2C473.076 215.2 491.497 202.197 491.497 176.624V50.2784H458.123V168.172C458.123 178.358 454.005 183.993 443.819 183.993C441.002 183.993 438.402 183.776 435.584 183.343V213.466C439.485 214.333 445.336 215.2 450.754 215.2Z" fill="white"/>
<path d="M557.389 165.572C588.38 165.572 606.367 147.584 609.401 127.213H577.111C575.16 132.414 569.742 138.482 557.389 138.482C542.219 138.482 535.501 129.163 535.284 115.944H610.918V103.591C610.918 72.8169 591.414 48.3279 556.739 48.3279C519.897 48.3279 501.26 74.9841 501.26 107.058C501.26 139.566 521.631 165.572 557.389 165.572ZM535.501 94.9221C536.151 84.0862 542.436 75.6342 556.739 75.6342C569.959 75.6342 576.244 84.0862 576.894 94.9221H535.501Z" fill="white"/>
<path d="M719.697 165.572C735.734 165.572 744.403 159.287 749.821 152.786H750.687L754.155 163.621H784.062V3.25076H750.687V61.1142H749.821C744.403 54.6127 735.734 48.3279 719.697 48.3279C691.09 48.3279 673.753 73.0336 673.753 106.841C673.753 140.866 691.09 165.572 719.697 165.572ZM729.883 136.315C713.412 136.315 707.561 122.662 707.561 106.841C707.561 91.0212 712.979 77.5847 729.883 77.5847C746.786 77.5847 752.204 91.0212 752.204 106.841C752.204 122.662 746.353 136.315 729.883 136.315Z" fill="white"/>
<path d="M849.991 165.572C880.982 165.572 898.969 147.584 902.003 127.213H869.712C867.762 132.414 862.344 138.482 849.991 138.482C834.821 138.482 828.103 129.163 827.886 115.944H903.52V103.591C903.52 72.8169 884.016 48.3279 849.341 48.3279C812.499 48.3279 793.861 74.9841 793.861 107.058C793.861 139.566 814.233 165.572 849.991 165.572ZM828.103 94.9221C828.753 84.0862 835.038 75.6342 849.341 75.6342C862.561 75.6342 868.846 84.0862 869.496 94.9221H828.103Z" fill="white"/>
<path d="M988.677 38.7924C1001.46 38.7924 1008.83 31.424 1008.83 19.2878C1008.83 7.36838 1001.46 0 988.677 0C975.457 0 968.522 7.36838 968.522 19.2878C968.522 31.424 975.457 38.7924 988.677 38.7924ZM1005.15 163.621V50.2784H971.773V163.621H1005.15Z" fill="white"/>
<path d="M1060.87 165.572C1076.91 165.572 1085.58 159.287 1091 152.786H1091.86L1095.33 163.621H1125.24V3.25076H1091.86V61.1142H1091C1085.58 54.6127 1076.91 48.3279 1060.87 48.3279C1032.27 48.3279 1014.93 73.0336 1014.93 106.841C1014.93 140.866 1032.27 165.572 1060.87 165.572ZM1071.06 136.315C1054.59 136.315 1048.74 122.662 1048.74 106.841C1048.74 91.0212 1054.16 77.5847 1071.06 77.5847C1087.96 77.5847 1093.38 91.0212 1093.38 106.841C1093.38 122.662 1087.53 136.315 1071.06 136.315Z" fill="white"/>
<path d="M1191.17 165.572C1222.16 165.572 1240.15 147.584 1243.18 127.213H1210.89C1208.94 132.414 1203.52 138.482 1191.17 138.482C1176 138.482 1169.28 129.163 1169.06 115.944H1244.7V103.591C1244.7 72.8169 1225.19 48.3279 1190.52 48.3279C1153.68 48.3279 1135.04 74.9841 1135.04 107.058C1135.04 139.566 1155.41 165.572 1191.17 165.572ZM1169.28 94.9221C1169.93 84.0862 1176.21 75.6342 1190.52 75.6342C1203.74 75.6342 1210.02 84.0862 1210.67 94.9221H1169.28Z" fill="white"/>
<path d="M1290.79 165.572C1304.87 165.572 1314.84 160.587 1321.13 153.436H1321.99L1324.38 163.621H1354.28V89.0707C1354.28 65.4485 1335.65 48.3279 1304.66 48.3279C1271.28 48.3279 1255.89 66.5321 1255.89 87.7704H1287.1C1287.1 80.8355 1293.17 75.2008 1303.57 75.2008C1315.92 75.2008 1320.91 81.2689 1320.91 89.0707V98.3895C1316.36 96.8725 1305.09 95.1388 1296.64 95.1388C1265.43 95.1388 1251.13 109.009 1251.13 130.03C1251.13 150.185 1265.21 165.572 1290.79 165.572ZM1299.24 139.566C1289.27 139.566 1284.07 134.798 1284.07 128.296C1284.07 122.228 1289.7 117.461 1300.54 117.461C1307.04 117.461 1313.97 118.327 1320.91 121.145V122.228C1320.91 131.547 1312.89 139.566 1299.24 139.566Z" fill="white"/>
<path d="M1414.32 165.572C1443.14 165.572 1463.95 152.786 1463.95 129.38C1463.95 105.541 1447.69 97.5227 1430.35 94.2719L1408.68 90.1543C1403.26 89.0707 1400.23 86.6868 1400.23 82.3525C1400.23 78.0181 1405.22 74.5507 1413.45 74.5507C1424.72 74.5507 1428.62 81.0522 1428.4 86.2534H1461.34C1461.34 65.2318 1443.57 48.3279 1414.1 48.3279C1383.76 48.3279 1367.51 63.4981 1367.51 81.919C1367.51 104.674 1383.98 113.993 1402.18 117.461L1418.87 120.711C1426.67 122.228 1430.35 124.612 1430.35 129.597C1430.35 133.498 1426.24 137.832 1414.32 137.832C1402.4 137.832 1397.41 131.547 1397.41 125.262H1364.04C1364.69 148.451 1378.99 165.572 1414.32 165.572Z" fill="white"/>
</svg>
