<svg width="823" height="269" viewBox="0 0 823 269" fill="none" xmlns="http://www.w3.org/2000/svg">
<path d="M137.048 139.782C134.61 154.953 117.818 168.768 91.8166 168.768C60.3986 168.768 43.3353 148.18 43.3353 109.984C43.3353 71.7875 60.3986 50.9285 91.8166 50.9285C118.359 50.9285 129.464 65.5569 132.443 80.998H175.779C171.716 43.6143 140.298 12.4612 91.8166 12.4612C30.8764 12.4612 0 55.2629 0 109.984C0 163.892 28.9805 206.965 89.9207 206.965C108.609 206.965 128.11 199.38 137.048 189.898L140.569 204.527H177.133V102.128H97.2335V139.782H137.048Z" fill="white"/>
<path d="M236.141 206.965C253.746 206.965 266.205 200.734 274.06 191.795H275.143L278.122 204.527H315.499V111.338C315.499 81.8107 292.206 60.4099 253.475 60.4099C211.765 60.4099 192.535 83.1652 192.535 109.713H231.537C231.537 101.044 239.121 94.001 252.121 94.001C267.559 94.001 273.789 101.586 273.789 111.338V122.987C268.101 121.091 254.017 118.923 243.454 118.923C204.452 118.923 186.577 136.261 186.577 162.538C186.577 187.731 204.182 206.965 236.141 206.965ZM246.704 174.457C234.245 174.457 227.745 168.497 227.745 160.371C227.745 152.786 234.787 146.826 248.329 146.826C256.455 146.826 265.122 147.909 273.789 151.431V152.786C273.789 164.434 263.768 174.457 246.704 174.457Z" fill="white"/>
<path d="M373.464 204.527V134.635C373.464 111.88 386.194 98.6062 405.966 98.6062H419.508V60.4099H409.757C391.611 60.4099 379.694 70.9748 373.464 83.4361H372.381L369.131 62.8479H334.462V204.527H373.464Z" fill="white"/>
<path d="M473.142 206.965C490.747 206.965 503.206 200.734 511.06 191.795H512.143L515.123 204.527H552.499V111.338C552.499 81.8107 529.207 60.4099 490.476 60.4099C448.766 60.4099 429.536 83.1652 429.536 109.713H468.537C468.537 101.044 476.121 94.001 489.122 94.001C504.56 94.001 510.789 101.586 510.789 111.338V122.987C505.101 121.091 491.017 118.923 480.454 118.923C441.453 118.923 423.577 136.261 423.577 162.538C423.577 187.731 441.182 206.965 473.142 206.965ZM483.705 174.457C471.246 174.457 464.745 168.497 464.745 160.371C464.745 152.786 471.787 146.826 485.33 146.826C493.455 146.826 502.122 147.909 510.789 151.431V152.786C510.789 164.434 500.768 174.457 483.705 174.457Z" fill="white"/>
<path d="M593.943 48.4904C609.923 48.4904 619.132 39.28 619.132 24.1098C619.132 9.21048 609.923 0 593.943 0C577.421 0 568.754 9.21048 568.754 24.1098C568.754 39.28 577.421 48.4904 593.943 48.4904ZM563.337 269C591.234 269 614.256 252.746 614.256 220.78V62.8479H572.546V210.216C572.546 222.948 567.4 229.991 554.67 229.991C551.149 229.991 547.899 229.72 544.378 229.178V266.833C549.253 267.916 556.566 269 563.337 269Z" fill="white"/>
<path d="M696.606 206.965C735.337 206.965 757.817 184.48 761.609 159.016H721.253C718.815 165.518 712.044 173.103 696.606 173.103C677.647 173.103 669.251 161.454 668.98 144.93H763.505V129.488C763.505 91.0212 739.129 60.4099 695.794 60.4099C649.75 60.4099 626.457 93.7301 626.457 133.823C626.457 174.457 651.917 206.965 696.606 206.965ZM669.251 118.653C670.063 105.108 677.918 94.5428 695.794 94.5428C712.315 94.5428 720.17 105.108 720.982 118.653H669.251Z" fill="white"/>
<path d="M798.624 206.965C814.062 206.965 823 197.754 823 182.584C823 167.685 814.062 158.474 798.624 158.474C782.644 158.474 774.248 167.685 774.248 182.584C774.248 197.754 782.644 206.965 798.624 206.965Z" fill="white"/>
</svg>
