<svg width="390" height="319" viewBox="0 0 390 319" fill="none" xmlns="http://www.w3.org/2000/svg">
<path d="M224.244 208.29C220.256 233.108 192.779 255.709 150.235 255.709C98.827 255.709 70.9072 222.028 70.9072 159.541C70.9072 97.0543 98.827 62.9302 150.235 62.9302C193.665 62.9302 211.835 86.8614 216.71 112.122H287.617C280.97 50.9646 229.562 0 150.235 0C50.5214 0 0 70.0209 0 159.541C0 247.732 47.4192 318.196 147.133 318.196C177.711 318.196 209.62 305.787 224.244 290.276L230.005 314.208H289.833V146.689H159.098V208.29H224.244Z" fill="white"/>
<path d="M349.602 318.196C374.863 318.196 389.488 303.128 389.488 278.311C389.488 253.937 374.863 238.869 349.602 238.869C323.455 238.869 309.717 253.937 309.717 278.311C309.717 303.128 323.455 318.196 349.602 318.196Z" fill="white"/>
</svg>
